# xmcd CD database file
#
# Track frame offsets:
#	150
#	17523
#	36617
#	57272
#	68867
#	86514
#	99768
#	118091
#	132412
#	152493
#	166667
#	187592
#	202537
#
# Disc length: 2940 seconds
#
# Revision: 9
# Processed by: cddbd v1.5PL3 Copyright (c) Steve Scherf et al.
# Submitted via: CDex 1.50
#
DISCID=960b7a0d
DTITLE=Michael Bublé - Michael Bublé
DYEAR=2002
DGENRE=Jazz
TTITLE0=Fever
TTITLE1=Moondance
TTITLE2=Kissing A Fool
TTITLE3=For Once In My Life
TTITLE4=How Can You Mend A Broken Heart
TTITLE5=Summer Wind
TTITLE6=You'll Never Find Another Love Like Mine
TTITLE7=Crazy Little Thing Called Love
TTITLE8=Put Your Head On My Shoulder
TTITLE9=Sway
TTITLE10=The Way You Look Tonight
TTITLE11=Come Fly With Me
TTITLE12=That's All
EXTD=YEAR: 2002
EXTT0=
EXTT1=
EXTT2=
EXTT3=
EXTT4=
EXTT5=
EXTT6=
EXTT7=
EXTT8=
EXTT9=
EXTT10=
EXTT11=
EXTT12=
PLAYORDER=
